HIERARCHY
ROOT Root
{
  OFFSET 0.0 0.0 0.0
  CHANNELS 6 Xposition Yposition Zposition Zrotation Yrotation Xrotation
  JOINT Hips
  {
    OFFSET 0.0 100.0 0.0
    CHANNELS 6 Xposition Yposition Zposition Zrotation Yrotation Xrotation
    JOINT Spine1
    {
      OFFSET 5.003913 -0.037094 -0.013727
      CHANNELS 3 Zrotation Yrotation Xrotation
      JOINT Spine2
      {
        OFFSET 7.125363 -1e-06 0.0
        CHANNELS 3 Zrotation Yrotation Xrotation
        JOINT Chest
        {
          OFFSET 7.594027 1e-06 0.0
          CHANNELS 3 Zrotation Yrotation Xrotation
          JOINT Neck1
          {
            OFFSET 26.313086 -0.460272 -0.181672
            CHANNELS 3 Zrotation Yrotation Xrotation
            JOINT Neck2
            {
              OFFSET 8.045911 0.0 0.0
              CHANNELS 3 Zrotation Yrotation Xrotation
              JOINT Head
              {
                OFFSET 6.432774 0.0 0.0
                CHANNELS 3 Zrotation Yrotation Xrotation
                JOINT HeadEnd
                {
                  OFFSET 16.169773 0.06451 0.00362
                  CHANNELS 3 Zrotation Yrotation Xrotation
                }
                JOINT Jaw
                {
                  OFFSET 0.108741 3.12938 0.002639
                  CHANNELS 3 Zrotation Yrotation Xrotation
                }
                JOINT LeftEye
                {
                  OFFSET 4.45173 8.166359 3.206392
                  CHANNELS 3 Zrotation Yrotation Xrotation
                }
                JOINT RightEye
                {
                  OFFSET 4.436895 8.135758 -3.222429
                  CHANNELS 3 Zrotation Yrotation Xrotation
                }
              }
            }
          }
          JOINT LeftShoulder
          {
            OFFSET 23.218927 5.195579 1.621656
            CHANNELS 3 Zrotation Yrotation Xrotation
            JOINT LeftArm
            {
              OFFSET 15.902118 2e-06 -2e-06
              CHANNELS 3 Zrotation Yrotation Xrotation
              JOINT LeftForeArm
              {
                OFFSET 28.739307 0.0 -1e-06
                CHANNELS 3 Zrotation Yrotation Xrotation
                JOINT LeftHand
                {
                  OFFSET 27.093981 -4e-06 0.0
                  CHANNELS 3 Zrotation Yrotation Xrotation
                  JOINT LeftHandThumb1
                  {
                    OFFSET 2.276781 3.380274 0.83384
                    CHANNELS 3 Zrotation Yrotation Xrotation
                    JOINT LeftHandThumb2
                    {
                      OFFSET 4.705309 -1e-06 -1e-06
                      CHANNELS 3 Zrotation Yrotation Xrotation
                      JOINT LeftHandThumb3
                      {
                        OFFSET 2.798515 0.0 3e-06
                        CHANNELS 3 Zrotation Yrotation Xrotation
                        JOINT LeftHandThumbEnd
                        {
                          OFFSET 3.180793 4e-06 -4e-06
                          CHANNELS 3 Zrotation Yrotation Xrotation
                        }
                      }
                    }
                  }
                  JOINT LeftHandIndex1
                  {
                    OFFSET 3.247786 2.352677 0.137192
                    CHANNELS 3 Zrotation Yrotation Xrotation
                    JOINT LeftHandIndex2
                    {
                      OFFSET 6.367095 1e-06 0.0
                      CHANNELS 3 Zrotation Yrotation Xrotation
                      JOINT LeftHandIndex3
                      {
                        OFFSET 3.662364 0.0 0.0
                        CHANNELS 3 Zrotation Yrotation Xrotation
                        JOINT LeftHandIndex4
                        {
                          OFFSET 2.329242 4e-06 -4e-06
                          CHANNELS 3 Zrotation Yrotation Xrotation
                          JOINT LeftHandIndexEnd
                          {
                            OFFSET 2.767823 1e-06 0.0
                            CHANNELS 3 Zrotation Yrotation Xrotation
                          }
                        }
                      }
                    }
                  }
                  JOINT LeftHandMiddle1
                  {
                    OFFSET 3.163612 0.945023 -0.406112
                    CHANNELS 3 Zrotation Yrotation Xrotation
                    JOINT LeftHandMiddle2
                    {
                      OFFSET 6.276789 3e-06 0.0
                      CHANNELS 3 Zrotation Yrotation Xrotation
                      JOINT LeftHandMiddle3
                      {
                        OFFSET 4.35652 -1e-06 4e-06
                        CHANNELS 3 Zrotation Yrotation Xrotation
                        JOINT LeftHandMiddle4
                        {
                          OFFSET 2.996877 0.0 8e-06
                          CHANNELS 3 Zrotation Yrotation Xrotation
                          JOINT LeftHandMiddleEnd
                          {
                            OFFSET 2.323256 3e-06 -4e-06
                            CHANNELS 3 Zrotation Yrotation Xrotation
                          }
                        }
                      }
                    }
                  }
                  JOINT LeftHandRing1
                  {
                    OFFSET 2.882606 -0.309162 0.107445
                    CHANNELS 3 Zrotation Yrotation Xrotation
                    JOINT LeftHandRing2
                    {
                      OFFSET 6.033198 0.0 4e-06
                      CHANNELS 3 Zrotation Yrotation Xrotation
                      JOINT LeftHandRing3
                      {
                        OFFSET 4.350578 3e-06 0.0
                        CHANNELS 3 Zrotation Yrotation Xrotation
                        JOINT LeftHandRing4
                        {
                          OFFSET 2.651321 2e-06 -7e-06
                          CHANNELS 3 Zrotation Yrotation Xrotation
                          JOINT LeftHandRingEnd
                          {
                            OFFSET 1.937663 1e-06 -4e-06
                            CHANNELS 3 Zrotation Yrotation Xrotation
                          }
                        }
                      }
                    }
                  }
                  JOINT LeftHandPinky1
                  {
                    OFFSET 2.865315 -1.525436 0.575687
                    CHANNELS 3 Zrotation Yrotation Xrotation
                    JOINT LeftHandPinky2
                    {
                      OFFSET 5.54936 1e-06 -8e-06
                      CHANNELS 3 Zrotation Yrotation Xrotation
                      JOINT LeftHandPinky3
                      {
                        OFFSET 3.070974 0.0 -4e-06
                        CHANNELS 3 Zrotation Yrotation Xrotation
                        JOINT LeftHandPinky4
                        {
                          OFFSET 1.549672 1e-06 0.0
                          CHANNELS 3 Zrotation Yrotation Xrotation
                          JOINT LeftHandPinkyEnd
                          {
                            OFFSET 1.952123 0.0 0.0
                            CHANNELS 3 Zrotation Yrotation Xrotation
                          }
                        }
                      }
                    }
                  }
                }
              }
            }
          }
          JOINT RightShoulder
          {
            OFFSET 23.161716 5.296122 -1.380114
            CHANNELS 3 Zrotation Yrotation Xrotation
            JOINT RightArm
            {
              OFFSET -16.027195 -2e-06 1.1e-05
              CHANNELS 3 Zrotation Yrotation Xrotation
              JOINT RightForeArm
              {
                OFFSET -28.736639 4e-06 2e-06
                CHANNELS 3 Zrotation Yrotation Xrotation
                JOINT RightHand
                {
                  OFFSET -27.133619 6e-06 0.0
                  CHANNELS 3 Zrotation Yrotation Xrotation
                  JOINT RightHandThumb1
                  {
                    OFFSET -2.274328 -3.351035 -0.83067
                    CHANNELS 3 Zrotation Yrotation Xrotation
                    JOINT RightHandThumb2
                    {
                      OFFSET -4.703594 -3e-06 2e-06
                      CHANNELS 3 Zrotation Yrotation Xrotation
                      JOINT RightHandThumb3
                      {
                        OFFSET -2.794935 -4e-06 -3e-06
                        CHANNELS 3 Zrotation Yrotation Xrotation
                        JOINT RightHandThumbEnd
                        {
                          OFFSET -3.183852 4e-06 1e-06
                          CHANNELS 3 Zrotation Yrotation Xrotation
                        }
                      }
                    }
                  }
                  JOINT RightHandIndex1
                  {
                    OFFSET -3.253496 -2.33755 -0.127667
                    CHANNELS 3 Zrotation Yrotation Xrotation
                    JOINT RightHandIndex2
                    {
                      OFFSET -6.344434 0.0 0.0
                      CHANNELS 3 Zrotation Yrotation Xrotation
                      JOINT RightHandIndex3
                      {
                        OFFSET -3.654871 0.0 -8e-06
                        CHANNELS 3 Zrotation Yrotation Xrotation
                        JOINT RightHandIndex4
                        {
                          OFFSET -2.327586 -1e-06 0.0
                          CHANNELS 3 Zrotation Yrotation Xrotation
                          JOINT RightHandIndexEnd
                          {
                            OFFSET -2.770001 3e-06 8e-06
                            CHANNELS 3 Zrotation Yrotation Xrotation
                          }
                        }
                      }
                    }
                  }
                  JOINT RightHandMiddle1
                  {
                    OFFSET -3.168223 -0.944764 0.411762
                    CHANNELS 3 Zrotation Yrotation Xrotation
                    JOINT RightHandMiddle2
                    {
                      OFFSET -6.266691 -1e-06 -4e-06
                      CHANNELS 3 Zrotation Yrotation Xrotation
                      JOINT RightHandMiddle3
                      {
                        OFFSET -4.348901 0.0 0.0
                        CHANNELS 3 Zrotation Yrotation Xrotation
                        JOINT RightHandMiddle4
                        {
                          OFFSET -3.00024 2e-06 -4e-06
                          CHANNELS 3 Zrotation Yrotation Xrotation
                          JOINT RightHandMiddleEnd
                          {
                            OFFSET -2.321477 -4e-06 -4e-06
                            CHANNELS 3 Zrotation Yrotation Xrotation
                          }
                        }
                      }
                    }
                  }
                  JOINT RightHandRing1
                  {
                    OFFSET -2.885654 0.293261 -0.119232
                    CHANNELS 3 Zrotation Yrotation Xrotation
                    JOINT RightHandRing2
                    {
                      OFFSET -6.032835 -1e-06 -4e-06
                      CHANNELS 3 Zrotation Yrotation Xrotation
                      JOINT RightHandRing3
                      {
                        OFFSET -4.33881 0.0 -4e-06
                        CHANNELS 3 Zrotation Yrotation Xrotation
                        JOINT RightHandRing4
                        {
                          OFFSET -2.654903 -4e-06 -4e-06
                          CHANNELS 3 Zrotation Yrotation Xrotation
                          JOINT RightHandRingEnd
                          {
                            OFFSET -1.935122 0.0 4e-06
                            CHANNELS 3 Zrotation Yrotation Xrotation
                          }
                        }
                      }
                    }
                  }
                  JOINT RightHandPinky1
                  {
                    OFFSET -2.866241 1.503904 -0.60527
                    CHANNELS 3 Zrotation Yrotation Xrotation
                    JOINT RightHandPinky2
                    {
                      OFFSET -5.553177 -2e-06 0.0
                      CHANNELS 3 Zrotation Yrotation Xrotation
                      JOINT RightHandPinky3
                      {
                        OFFSET -3.062664 -1e-06 -4e-06
                        CHANNELS 3 Zrotation Yrotation Xrotation
                        JOINT RightHandPinky4
                        {
                          OFFSET -1.546529 2e-06 4e-06
                          CHANNELS 3 Zrotation Yrotation Xrotation
                          JOINT RightHandPinkyEnd
                          {
                            OFFSET -1.952341 0.0 -4e-06
                            CHANNELS 3 Zrotation Yrotation Xrotation
                          }
                        }
                      }
                    }
                  }
                }
              }
            }
          }
        }
      }
    }
    JOINT LeftLeg
    {
      OFFSET -8.443107 2.567604 10.043214
      CHANNELS 3 Zrotation Yrotation Xrotation
      JOINT LeftShin
      {
        OFFSET 43.229198 1e-06 -1e-06
        CHANNELS 3 Zrotation Yrotation Xrotation
        JOINT LeftFoot
        {
          OFFSET 42.298611 1e-06 1e-06
          CHANNELS 3 Zrotation Yrotation Xrotation
          JOINT LeftToeBase
          {
            OFFSET 14.165858 1e-06 0.0
            CHANNELS 3 Zrotation Yrotation Xrotation
            JOINT LeftToeEnd
            {
              OFFSET 6.7141 -0.234461 0.0
              CHANNELS 3 Zrotation Yrotation Xrotation
            }
          }
        }
      }
    }
    JOINT RightLeg
    {
      OFFSET -8.303923 2.592729 -10.047278
      CHANNELS 3 Zrotation Yrotation Xrotation
      JOINT RightShin
      {
        OFFSET -43.369682 0.0 1e-06
        CHANNELS 3 Zrotation Yrotation Xrotation
        JOINT RightFoot
        {
          OFFSET -42.260784 4e-06 2e-06
          CHANNELS 3 Zrotation Yrotation Xrotation
          JOINT RightToeBase
          {
            OFFSET -14.222245 -2e-06 -1e-06
            CHANNELS 3 Zrotation Yrotation Xrotation
            JOINT RightToeEnd
            {
              OFFSET -6.660062 0.232574 -2e-06
              CHANNELS 3 Zrotation Yrotation Xrotation
            }
          }
        }
      }
    }
  }
}
MOTION
Frames: 4
Frame Time: 0.03333333333333333
0.0 0.0 0.0 0.0 -0.0 0.0 -2.823647 99.654709 -3.621145 90.389908 -0.861832 90.028366 -3.896305 -0.731169 -0.121716 -12.417995 -0.673035 -0.809204 18.496199 1.341833 -2.627192 19.570126 -5.17498 2.703885 -2.506737 -0.834609 -0.232787 -26.011312 0.079967 -1.390077 6e-06 0.0 -0.0 -0.028943 0.04117 0.027739 0.051417 0.097733 0.059032 0.051732 -0.019461 0.001369 -111.809341 -73.314117 126.166656 47.405037 -62.364574 -2.14055 24.32012 0.265069 0.123783 -8.272797 5.386735 5.702782 17.636625 -26.322725 52.411182 -19.46665 -14.395594 29.410381 0.0 -8.774821 -1e-06 16.554985 -17.840279 5.764081 -0.609777 -1.795653 -3.889327 -4.807089 -11.046807 -2.937852 3e-06 -20.976011 1e-06 -5.019971 -25.033552 -4.031882 7e-06 -3e-06 1e-06 -10.634533 -5.686971 -3.565585 10.573271 -17.922945 -3.113899 3e-06 -13.821204 1e-06 -0.501778 -31.181498 -4.027015 -11.381179 -59.84753 6.979189 -13.982712 -7.150198 -2.875043 13.772726 -8.401489 -3.218241 0.347731 -34.211536 0.771657 -0.963029 -17.733364 2.621019 0.0 -1e-06 1e-06 -17.346416 -20.095213 -4.201781 21.757557 -1.638374 3.866428 1e-06 -6.338823 1e-06 -1.697588 -22.59174 -6.194008 0.0 -3e-06 -2e-06 94.415039 -79.987984 97.854202 46.019184 -68.48558 5.029501 31.604553 -0.475026 -0.017783 -8.548922 0.43907 8.953441 22.182117 -20.3759 49.933323 -16.701813 -16.743528 28.47653 -4e-06 -12.690601 -0.0 16.349026 -17.53994 2.476712 -0.10592 -1.513857 -4.275881 -5.039042 -5.612873 -2.953557 4e-06 -11.020526 -0.0 -6.1113 -15.895334 -3.840472 -0.0 0.0 -1e-06 -10.28337 -5.680287 -4.341839 11.028295 -11.302405 -2.372634 -1.384269 -14.238579 -6.320119 -0.625441 -26.924185 -3.827597 -4.507922 -50.197063 -3.771602 -13.708525 -7.363475 -3.720938 18.141148 -14.05274 -3.242674 6e-06 -18.787271 -1e-06 -0.42971 -8.456047 2.555507 1e-06 2e-06 2e-06 -15.923536 -20.094482 -5.473586 30.419214 -7.190827 1.735924 4e-06 -8.162929 2e-06 -1.861902 -22.861471 -6.167939 -0.0 -4e-06 -0.0 179.490585 -3.857054 -9.618112 13.467586 -0.013541 0.005178 -82.32061 1.161647 -5.210886 -4.525485 1.452346 2.141134 -0.999998 -0.0 -0.0 -2.724966 -3.642615 -2.775414 16.418137 -0.002339 0.055592 -83.363991 0.049892 -5.500604 -4.182085 0.728618 1.699358 -1.000003 0.0 -0.0 
0.0 0.0 0.0 0.0 -0.0 0.0 -2.757771 99.680557 -3.585453 90.398018 -0.904235 90.010147 -3.903371 -0.735134 -0.150006 -12.415769 -0.649672 -0.752994 18.471582 1.340833 -2.657536 19.558681 -5.186135 2.689567 -2.486887 -0.80374 -0.180272 -26.026089 0.044049 -1.374309 6e-06 0.0 -0.0 -0.031376 0.040204 0.05538 0.064823 0.099562 0.089831 0.059837 -0.022921 0.025711 -111.791473 -73.326263 126.240547 47.666954 -62.392227 -2.529818 24.241861 0.176411 0.073242 -8.189589 5.332305 5.929824 17.636625 -26.322729 52.41119 -19.466658 -14.395598 29.410385 -0.0 -8.774821 -1e-06 16.498735 -17.813208 5.790318 -0.609775 -1.795654 -3.889328 -4.807088 -11.046807 -2.937852 4e-06 -20.976013 2e-06 -5.019969 -25.033548 -4.031881 5e-06 -1e-06 1e-06 -10.634531 -5.686968 -3.565588 10.573271 -17.922947 -3.113897 3e-06 -13.821206 1e-06 -0.501777 -31.181505 -4.027014 -11.373089 -59.830498 7.078944 -13.982712 -7.150198 -2.875039 13.772728 -8.40149 -3.218242 0.347732 -34.211552 0.771657 -0.96303 -17.73337 2.62102 -1e-06 2e-06 2e-06 -17.346413 -20.095215 -4.201782 21.757555 -1.638374 3.866426 1e-06 -6.338824 1e-06 -1.697591 -22.591742 -6.194002 3e-06 -4e-06 -3e-06 94.230209 -79.98172 98.17337 46.21246 -68.383507 4.847037 31.559006 -0.47533 -0.037693 -8.581566 0.254982 8.915599 22.182119 -20.375898 49.933323 -16.701817 -16.74353 28.476532 -4e-06 -12.690603 -0.0 16.346048 -17.528847 2.469267 -0.10592 -1.513856 -4.275881 -5.039042 -5.612871 -2.953553 4e-06 -11.020524 -0.0 -6.1113 -15.895334 -3.840475 -1e-06 0.0 0.0 -10.283373 -5.680289 -4.341839 11.028296 -11.302406 -2.372633 -1.38427 -14.23858 -6.320123 -0.625441 -26.924191 -3.8276 -4.534687 -50.28685 -3.733098 -13.708528 -7.363477 -3.720936 18.141153 -14.052739 -3.242676 5e-06 -18.78727 -1e-06 -0.429712 -8.456045 2.555505 1e-06 1e-06 1e-06 -15.923539 -20.094486 -5.473584 30.419218 -7.190826 1.735927 4e-06 -8.162928 -1e-06 -1.861903 -22.861469 -6.167942 -1e-06 -1e-06 -0.0 179.643204 -3.769278 -9.645874 13.123609 -0.010468 0.048587 -82.202629 1.193257 -5.250169 -4.542323 1.47784 2.151152 -1.000001 0.0 -0.0 -2.619075 -3.686564 -2.793012 16.14723 -0.012326 0.07585 -83.286331 0.048516 -5.535288 -4.200029 0.707728 1.697341 -1.000003 0.0 -0.0 
0.0 0.0 0.0 0.0 -0.0 0.0 -2.714837 99.686287 -3.570085 90.419731 -0.944062 90.005997 -3.921856 -0.73841 -0.161394 -12.432471 -0.637597 -0.733754 18.503357 1.331833 -2.672025 19.534863 -5.188121 2.707063 -2.513453 -0.767448 -0.182861 -25.991604 0.035157 -1.383899 6e-06 0.0 -0.0 -0.036568 0.041191 0.070209 0.05802 0.099575 0.106622 0.052435 -0.020921 0.037809 -111.862213 -73.325813 126.352272 47.733711 -62.40683 -2.714731 24.257307 0.098723 0.031163 -8.178194 5.256933 5.997037 17.636629 -26.322739 52.411209 -19.466665 -14.395597 29.410395 -1e-06 -8.774822 0.0 16.472841 -17.812967 5.809866 -0.609777 -1.795654 -3.88933 -4.80709 -11.046814 -2.93785 6e-06 -20.976023 -2e-06 -5.019969 -25.03356 -4.031879 6e-06 -1e-06 -0.0 -10.634535 -5.686973 -3.565589 10.573277 -17.922955 -3.113901 4e-06 -13.821213 -1e-06 -0.501775 -31.181519 -4.027018 -11.38738 -59.788834 7.101332 -13.982717 -7.150202 -2.875043 13.772731 -8.401495 -3.218244 0.347735 -34.211563 0.771655 -0.963027 -17.733376 2.621019 0.0 0.0 1e-06 -17.346418 -20.095222 -4.201785 21.757559 -1.638375 3.866426 1e-06 -6.338825 1e-06 -1.697588 -22.591749 -6.194007 -0.0 -2e-06 -3e-06 94.025909 -80.012093 98.490677 46.210033 -68.2985 4.695624 31.540684 -0.499661 -0.047297 -8.634826 0.143742 8.865613 22.182121 -20.375898 49.933323 -16.70182 -16.743532 28.476534 -4e-06 -12.690605 -1e-06 16.350142 -17.49996 2.467093 -0.105918 -1.513857 -4.275881 -5.039042 -5.612873 -2.953554 5e-06 -11.020528 -3e-06 -6.111298 -15.895338 -3.840471 0.0 -1e-06 0.0 -10.283373 -5.680289 -4.341837 11.028298 -11.302409 -2.372631 -1.384269 -14.238585 -6.320124 -0.625439 -26.924206 -3.827601 -4.534253 -50.310989 -3.73717 -13.708528 -7.363477 -3.720939 18.141157 -14.052744 -3.242676 7e-06 -18.787273 -4e-06 -0.429711 -8.456045 2.555504 1e-06 1e-06 1e-06 -15.923539 -20.09449 -5.473583 30.419222 -7.190828 1.735924 4e-06 -8.162929 -2e-06 -1.8619 -22.861479 -6.167943 -0.0 -4e-06 -1e-06 179.656647 -3.70833 -9.666595 13.031858 -0.010349 0.06974 -82.177399 1.229209 -5.256784 -4.508521 1.480754 2.157625 -0.999999 -0.0 -0.0 -2.636887 -3.74015 -2.788404 16.113655 -0.008877 0.082959 -83.323845 0.018561 -5.589139 -4.188635 0.699174 1.696551 -1.000002 0.0 0.0 
0.0 0.0 0.0 0.0 -0.0 0.0 -2.687724 99.686409 -3.563399 90.442795 -0.978599 90.00209 -3.936861 -0.747547 -0.166868 -12.453491 -0.62654 -0.727999 18.548399 1.322841 -2.657736 19.51963 -5.186009 2.726012 -2.548509 -0.740689 -0.180925 -25.990129 0.040463 -1.401877 6e-06 -0.0 -0.0 -0.040594 0.041451 0.071645 0.045351 0.098871 0.109377 0.040271 -0.019721 0.037452 -112.069183 -73.307434 126.598953 47.714367 -62.376896 -2.733396 24.330822 0.062225 0.008974 -8.177565 5.189188 5.995761 17.636627 -26.322733 52.411201 -19.466665 -14.3956 29.410393 -1e-06 -8.774823 -2e-06 16.445602 -17.790417 5.816244 -0.609778 -1.795653 -3.88933 -4.807088 -11.046813 -2.937852 5e-06 -20.976019 -1e-06 -5.01997 -25.033562 -4.031879 6e-06 1e-06 0.0 -10.634535 -5.686972 -3.56559 10.573277 -17.922955 -3.1139 3e-06 -13.821211 -0.0 -0.501776 -31.181511 -4.02702 -11.373371 -59.742306 7.072949 -13.982716 -7.150198 -2.875044 13.772731 -8.401495 -3.218242 0.347733 -34.211563 0.771655 -0.963029 -17.733374 2.621021 -2e-06 0.0 1e-06 -17.346422 -20.095222 -4.201784 21.757561 -1.638375 3.866427 2e-06 -6.338825 1e-06 -1.69759 -22.591749 -6.194005 1e-06 -4e-06 -1e-06 93.659721 -80.037918 98.942528 46.090599 -68.224266 4.707423 31.523071 -0.500783 -0.043043 -8.6557 0.028018 8.765994 22.182121 -20.375898 49.933327 -16.701817 -16.743532 28.476532 -5e-06 -12.690605 -1e-06 16.341114 -17.466908 2.476542 -0.105919 -1.513855 -4.275881 -5.039042 -5.612873 -2.953555 4e-06 -11.020525 -3e-06 -6.1113 -15.895336 -3.840472 0.0 0.0 -1e-06 -10.283372 -5.680289 -4.341835 11.028296 -11.302406 -2.372636 -1.384269 -14.238581 -6.32012 -0.625438 -26.924194 -3.827601 -4.533864 -50.263439 -3.734018 -13.708527 -7.363476 -3.72094 18.141153 -14.052742 -3.242676 6e-06 -18.787271 -2e-06 -0.429711 -8.456047 2.555507 -1e-06 1e-06 0.0 -15.923539 -20.094486 -5.473586 30.419218 -7.190826 1.735925 4e-06 -8.162928 -1e-06 -1.861902 -22.861471 -6.167944 1e-06 -2e-06 -1e-06 179.633759 -3.665202 -9.70375 13.012688 -0.012642 0.077155 -82.173943 1.254949 -5.2517 -4.473256 1.473928 2.159356 -0.999998 -0.0 0.0 -2.688029 -3.786254 -2.772755 16.14871 -0.003061 0.075639 -83.378494 -0.013793 -5.631764 -4.186852 0.691455 1.695291 -1.000002 0.0 -0.0 
